<svg xmlns="http://www.w3.org/2000/svg" viewBox="0 0 64 64" width="64" height="64">
  <ellipse cx="32" cy="52" rx="18" ry="8" fill="#000" opacity=".08"/>
  <path d="M18 44 Q32 34 46 44 L44 56 Q32 50 20 56Z" fill="#922B21" stroke="#641E16" stroke-width="1"/>
  <circle cx="32" cy="26" r="12" fill="#F0C9A8" stroke="#C49A6C" stroke-width="1"/>
  <path d="M20 14 Q32 6 44 14 L42 20 Q32 12 22 20Z" fill="#FFF" stroke="#D5DBDB" stroke-width="1"/>
  <path d="M24 10 H40 L38 14 H26 Z" fill="#F4D03F" stroke="#D4AC0D" stroke-width="1"/>
  <circle cx="28" cy="12" r="2" fill="#E74C3C"/><circle cx="32" cy="10" r="2" fill="#E74C3C"/>
  <circle cx="36" cy="12" r="2" fill="#E74C3C"/>
  <circle cx="28" cy="25" r="1.5" fill="#333"/><circle cx="36" cy="25" r="1.5" fill="#333"/>
  <ellipse cx="50" cy="36" rx="3" ry="6" fill="#F4D03F" stroke="#D4AC0D" stroke-width="1"/>
  <circle cx="50" cy="30" rx="4" ry="3" fill="#85929E" stroke="#566573" stroke-width="1"/></svg>
